:FULLY-SPECIFIED
:DEGREES
71
root -0.567874014377594 -0.567874014377594 -0.567874014377594 -0.5678755879732001 -0.5678755879732001 -0.5678755879732001
lhipjoint -9.671654586443837e-08 -1.5341245206083327e-07 1.0672170578144923e-06
lfemur -21.434048860848794 -2.3832303728924575 -16.983757144856945
ltibia 32.124056478011205 -2.2638695618348247e-06 -6.329938909271193e-07
lfoot -20.57689085586346 -1.0015048643182097e-06 10.859742940679107
ltoes -60.91744633934656 1.1321614399662322e-06 2.206292056769603e-06
rhipjoint 1.1005675908711953e-07 6.870210827458292e-07 -1.494104084495789e-06
rfemur -12.384664635154493 2.5668527516522572 13.600598816862258
rtibia 16.708763483588477 9.32051320739028e-07 -2.3166512993291484e-06
rfoot -22.97113853733056 1.8873515293109311e-06 -12.41817695831716
rtoes -6.306913863546088 3.635960240751687e-07 -7.346404492144509e-07
lowerback 20.05304095973287 1.7978833744657763 -0.02990253150072946
upperback -0.4686191722328691 2.482623712581306 1.767366729584394
thorax -12.205037490172327 1.2972305083038418 1.3317914789475178
lowerneck -11.457395592112624 -2.029057957114028 -1.9248847656666397
upperneck 23.5797988923852 -3.0151462414105206 2.3060364286666197
head 9.370881229926802 -1.331763944747426 0.7745436119620046
lclavicle -1.4085775951116125e-07 5.4855408257763046e-08 -1.0938974842598547e-06
lhumerus -21.45839848523989 20.119869238119566 63.13003830964801
lradius 56.81830830896341 -1.6024695009366186e-06 3.3174756776121496e-06
lwrist -8.593146305065775e-07 -43.21121227465318 2.0720257805580566e-07
lhand -4.562975323145072 2.6246558075710764e-07 -26.656099019086014
lfingers 7.125022823272814 9.845282338726802e-08 3.18924141240953e-07
lthumb 21.213298854421275 -1.2803152392500461e-07 2.20318914769186
rclavicle 1.398304276268298e-07 4.3880174074018323e-07 -1.3740421654916584e-06
rhumerus -25.137527692991448 -26.934832208925066 -44.71408953358235
rradius 68.80759207608608 -2.6738529327172034e-06 -1.1609097460210699e-05
rwrist 5.467617255146573e-07 48.06115201936081 1.222245740542258e-06
rhand -6.972260092956778 2.0321462048512455e-07 -36.68780446630613
rfingers 7.125022396385991 5.1024341088409163e-08 -3.1892353057445414e-07
rthumb 18.897492480477187 1.5447771905696147e-06 -65.78980959509936
72
root -0.567874014377594 -0.567874014377594 -0.567874014377594 -0.5678755879732001 -0.5678755879732001 -0.5678755879732001
lhipjoint -9.671654586443837e-08 -1.5341245206083327e-07 1.0672170578144923e-06
lfemur -23.8274291082913 -1.9939635913848561 -16.77848093199409
ltibia 34.232563195550824 -1.325891112058046e-06 6.006918722489264e-07
lfoot -20.50686775649249 4.159223061391069e-07 10.057577350022482
ltoes -60.80648308609054 -6.557716495561386e-07 2.101730074839055e-06
rhipjoint 1.1005675908711953e-07 6.870210827458292e-07 -1.494104084495789e-06
rfemur -16.02385943437628 1.7418746493329083 13.797691609325792
rtibia 21.921164292075762 6.360961785189814e-07 -1.4334003740675005e-06
rfoot -24.118393459386553 9.740562575839616e-08 -10.995200959846091
rtoes -7.1025630268476965 -5.569579731569305e-07 -7.648171449211775e-07
lowerback 19.932619602023667 1.9071111193423855 0.17843210200125112
upperback -0.037757185680231314 2.638419900662474 1.668342326832432
thorax -11.777412152842523 1.356570871647795 1.0838144174976234
lowerneck -11.457395592112624 -2.029057957114028 -1.9248847656666397
upperneck 23.5797988923852 -3.0151462414105206 2.3060364286666197
head 9.370881229926802 -1.331763944747426 0.7745436119620046
lclavicle -1.4085775951116125e-07 5.4855408257763046e-08 -1.0938974842598547e-06
lhumerus -19.696645103936188 17.406641477129117 70.66690617194695
lradius 60.28717014311613 3.1145579173787744e-07 6.050526824282499e-06
lwrist -7.980726684484356e-07 -41.44338173253546 1.9243586061405067e-07
lhand -4.562975323145072 2.6246558075710764e-07 -26.656099019086014
lfingers 7.125022823272814 9.845282338726802e-08 3.18924141240953e-07
lthumb 21.213298854421275 -1.2803152392500461e-07 2.20318914769186
rclavicle 1.398304276268298e-07 4.3880174074018323e-07 -1.3740421654916584e-06
rhumerus -23.29725445698928 -23.375268877689166 -51.57141504516756
rradius 73.34796715704123 -9.603194800813769e-07 -1.0164753942483966e-05
rwrist 5.490741159902685e-07 48.15960236605738 1.227417678676442e-06
rhand -6.972260092956778 2.0321462048512455e-07 -36.68780446630613
rfingers 7.125022396385991 5.1024341088409163e-08 -3.1892353057445414e-07
rthumb 18.897492480477187 1.5447771905696147e-06 -65.78980959509936
73
root -0.567874014377594 -0.567874014377594 -0.567874014377594 -0.5678755879732001 -0.5678755879732001 -0.5678755879732001
lhipjoint -9.671654586443837e-08 -1.5341245206083327e-07 1.0672170578144923e-06
lfemur -27.419111404099187 -0.8900001691965481 -16.802058745008974
ltibia 37.347604155223955 -2.6483924143810256e-06 -7.390143480123995e-07
lfoot -20.54898270291479 -4.903448430193578e-08 8.666321603830598
ltoes -60.49819566771284 -6.702257184727058e-07 2.090766982740862e-06
rhipjoint 1.1005675908711953e-07 6.870210827458292e-07 -1.494104084495789e-06
rfemur -21.27703647220854 0.5991978216506737 13.762421366225492
rtibia 28.99498630978287 1.4723494975855778e-06 -1.15394940997838e-06
rfoot -25.591965791681783 2.707284887973752e-06 -8.943112458624427
rtoes -8.555358350574572 -6.802579512711652e-07 -8.850049630018189e-07
lowerback 20.884488425134982 1.9878582560405111 0.20565706261015004
upperback 0.41818508208192134 2.7134838930843257 1.5166167180531802
thorax -11.773724704464362 1.3752173948036357 0.8777206096467759
lowerneck -11.457395592112624 -2.029057957114028 -1.9248847656666397
upperneck 23.5797988923852 -3.0151462414105206 2.3060364286666197
head 9.370881229926802 -1.331763944747426 0.7745436119620046
lclavicle -1.4085775951116125e-07 5.4855408257763046e-08 -1.0938974842598547e-06
lhumerus -17.018975307764823 13.101779002718825 76.04992169080657
lradius 63.988975578912125 6.144497813568148e-07 5.702402951955215e-06
lwrist -7.19052372609536e-07 -38.94900006274139 1.7338105573965294e-07
lhand -4.562975323145072 2.6246558075710764e-07 -26.656099019086014
lfingers 7.125022823272814 9.845282338726802e-08 3.18924141240953e-07
lthumb 21.213298854421275 -1.2803152392500461e-07 2.20318914769186
rclavicle 1.398304276268298e-07 4.3880174074018323e-07 -1.3740421654916584e-06
rhumerus -20.749896132445297 -18.34865092217352 -57.85420211924423
rradius 77.74996943560109 -1.4201002612782433e-06 -1.148384976129841e-05
rwrist 5.335835424696686e-07 47.49113175198823 1.1927870868604186e-06
rhand -6.972260092956778 2.0321462048512455e-07 -36.68780446630613
rfingers 7.125022396385991 5.1024341088409163e-08 -3.1892353057445414e-07
rthumb 18.897492480477187 1.5447771905696147e-06 -65.78980959509936
74
root -0.567874014377594 -0.567874014377594 -0.567874014377594 -0.5678755879732001 -0.5678755879732001 -0.5678755879732001
lhipjoint -9.671654586443837e-08 -1.5341245206083327e-07 1.0672170578144923e-06
lfemur -32.213712956151376 1.1924694937010092 -17.148692552934413
ltibia 41.66812910717473 -1.593607508705438e-06 -1.3144085463248392e-06
lfoot -20.65385171988387 -3.9052086978669213e-07 6.4690924365198095
ltoes -60.06754541035437 -2.6361729777392174e-07 1.8284258761717681e-06
rhipjoint 1.1005675908711953e-07 6.870210827458292e-07 -1.494104084495789e-06
rfemur -28.12052060544072 -0.7874403964971639 13.44203170641218
rtibia 38.07729375482393 1.88421188928489e-06 -2.788464449663678e-06
rfoot -27.48011694621845 -3.288567336223516e-07 -6.281290835761608
rtoes -10.9133838313258 -1.7328590117691477e-06 -9.114761343935783e-07
lowerback 23.172314929144115 2.0138945102697767 0.09283603125041248
upperback 0.8573659522290503 2.7074737535015374 1.3561072725578807
thorax -12.33806566954208 1.349194480787593 0.7341361594713564
lowerneck -11.457395592112624 -2.029057957114028 -1.9248847656666397
upperneck 23.5797988923852 -3.0151462414105206 2.3060364286666197
head 9.370881229926802 -1.331763944747426 0.7745436119620046
lclavicle -1.4085775951116125e-07 5.4855408257763046e-08 -1.0938974842598547e-06
lhumerus -12.422442411453833 6.863016339824302 79.35399838104357
lradius 67.34106849901431 -3.1431116650870812e-06 5.002240835043077e-06
lwrist -6.434345578355536e-07 -36.30705215592919 1.5514750825066526e-07
lhand -4.562975323145072 2.6246558075710764e-07 -26.656099019086014
lfingers 7.125022823272814 9.845282338726802e-08 3.18924141240953e-07
lthumb 21.213298854421275 -1.2803152392500461e-07 2.20318914769186
rclavicle 1.398304276268298e-07 4.3880174074018323e-07 -1.3740421654916584e-06
rhumerus -16.493031958653624 -12.25100978592839 -63.79124843262943
rradius 81.43991083280878 -1.7157463044721266e-06 -1.255226372545063e-05
rwrist 5.154976363289945e-07 46.68187386365219 1.1523604557483957e-06
rhand -6.972260092956778 2.0321462048512455e-07 -36.68780446630613
rfingers 7.125022396385991 5.1024341088409163e-08 -3.1892353057445414e-07
rthumb 18.897492480477187 1.5447771905696147e-06 -65.78980959509936
